<svg id="Layer_1" data-name="Layer 1" xmlns="http://www.w3.org/2000/svg" xmlns:xlink="http://www.w3.org/1999/xlink" viewBox="0 0 1185.62 262.14"><defs><style>.cls-1,.cls-7{fill:#29abe2;}.cls-2{fill:#fff;}.cls-3{fill:url(#linear-gradient);}.cls-4{fill:url(#linear-gradient-2);}.cls-5{fill:url(#linear-gradient-3);}.cls-6{fill:url(#linear-gradient-4);}.cls-7{font-size:218.64px;font-family:Kanit-Bold, Kanit;font-weight:700;}.cls-8{letter-spacing:-0.06em;}.cls-9{letter-spacing:-0.03em;}.cls-10{letter-spacing:-0.02em;}</style><linearGradient id="linear-gradient" x1="121.1" y1="220.06" x2="155.96" y2="256.16" gradientUnits="userSpaceOnUse"><stop offset="0" stop-color="#055283"/><stop offset="1" stop-color="#29abe2"/></linearGradient><linearGradient id="linear-gradient-2" x1="154.32" y1="317.15" x2="108.37" y2="363.1" gradientTransform="translate(278.97 6.74) rotate(45)" xlink:href="#linear-gradient"/><linearGradient id="linear-gradient-3" x1="1316.57" y1="870.98" x2="1391.5" y2="948.58" gradientTransform="matrix(0.9, 0.58, -0.9, 0.58, -341.58, -995.7)" xlink:href="#linear-gradient"/><linearGradient id="linear-gradient-4" x1="896.89" y1="606.65" x2="971.83" y2="684.25" gradientTransform="matrix(0.9, 0.58, -0.9, 0.58, -188.66, -678.67)" xlink:href="#linear-gradient"/></defs><path class="cls-1" d="M169.61,332.44l5.47,5.47a9.77,9.77,0,0,1-2.26,15.5L105.57,389.8,19.33,343.13A19.44,19.44,0,0,1,9.14,326v-81.2a19.44,19.44,0,0,1,10.19-17.1l86.24-46.67,69.56,37.64a9.77,9.77,0,0,1,2.25,15.5l-6.09,6.09-30.57,30.57h0l-35.15-35.15L55.86,285.44l49.71,49.7,33.37-33.37.09.09Z" transform="translate(-9.14 -176.21)"/><rect class="cls-2" x="89.15" y="77.09" width="49.7"/><path class="cls-3" d="M171.29,240.3l-30.57,30.57h0l-35.15-35.15h0l19.53-19.54a15.61,15.61,0,0,1,22.07,0Z" transform="translate(-9.14 -176.21)"/><rect class="cls-4" x="98.86" y="318.51" width="64.98" height="43.24" transform="translate(-211.17 16.28) rotate(-45)"/><path class="cls-5" d="M37.34,274.84H40.1a40.48,40.48,0,0,1,40.48,40.48v48.12a0,0,0,0,1,0,0H37.34a0,0,0,0,1,0,0v-88.6A0,0,0,0,1,37.34,274.84Z" transform="translate(317.17 326.91) rotate(135)"/><path class="cls-6" d="M50.21,194.52H53A40.48,40.48,0,0,1,93.45,235v48.12a0,0,0,0,1,0,0H50.21a0,0,0,0,1,0,0v-88.6A0,0,0,0,1,50.21,194.52Z" transform="translate(-55.4 282.28) rotate(-135)"/><text class="cls-7" transform="translate(178.36 179.72)"><tspan class="cls-8">F</tspan><tspan class="cls-9" x="103.63" y="0">A</tspan><tspan x="258.43" y="0">AN</tspan><tspan class="cls-10" x="569.77" y="0">C</tspan><tspan x="698.11" y="0">AD</tspan></text></svg>