<svg xmlns="http://www.w3.org/2000/svg" xmlns:xlink="http://www.w3.org/1999/xlink" viewBox="0 0 1200 1232.96"><defs><style>.cls-1,.cls-7{fill:#29abe2;}.cls-2{fill:#fff;}.cls-3{fill:url(#linear-gradient);}.cls-4{fill:url(#linear-gradient-2);}.cls-5{fill:url(#linear-gradient-3);}.cls-6{fill:url(#linear-gradient-4);}.cls-7{font-size:260.47px;font-family:Kanit-Bold, Kanit;font-weight:700;}.cls-8{letter-spacing:-0.06em;}.cls-9{letter-spacing:-0.03em;}.cls-10{letter-spacing:-0.02em;}</style><linearGradient id="linear-gradient" x1="683.38" y1="171.88" x2="832.16" y2="325.94" gradientUnits="userSpaceOnUse"><stop offset="0" stop-color="#055283"/><stop offset="1" stop-color="#29abe2"/></linearGradient><linearGradient id="linear-gradient-2" x1="825.19" y1="580.82" x2="629.07" y2="776.94" xlink:href="#linear-gradient"/><linearGradient id="linear-gradient-3" x1="839.38" y1="990.28" x2="1160.38" y2="1322.68" gradientTransform="matrix(0.9, 0.58, -0.9, 0.58, 559.35, -657.6)" xlink:href="#linear-gradient"/><linearGradient id="linear-gradient-4" x1="1147.87" y1="1242.97" x2="1468.87" y2="1575.37" gradientTransform="matrix(0.9, 0.58, -0.9, 0.58, 563.95, -1326.41)" xlink:href="#linear-gradient"/></defs><g id="Layer_1" data-name="Layer 1"><path class="cls-1" d="M890.44,651.52l23.35,23.34A41.71,41.71,0,0,1,904.15,741l-287,155.33L249,697.15a83,83,0,0,1-43.48-73V277.61a83,83,0,0,1,43.48-73L617.12,5.44,914,166.09a41.69,41.69,0,0,1,9.64,66.16l-26,26L767.13,388.73v0l-150-150L405,450.9,617.12,663.06,759.55,520.63l.39.38Z" transform="translate(0 -5.44)"/><polygon class="cls-2" points="767.13 383.29 767.13 383.31 617.12 233.3 617.13 233.3 767.13 383.29"/><path class="cls-3" d="M897.62,258.24,767.13,388.73v0l-150-150h0l83.39-83.4a66.61,66.61,0,0,1,94.2,0Z" transform="translate(0 -5.44)"/><polygon class="cls-4" points="890.44 646.07 694.32 842.19 563.81 711.69 759.94 515.57 890.44 646.07"/><path class="cls-5" d="M325.89,405.67H460a50.49,50.49,0,0,1,50.49,50.49V783.84a0,0,0,0,1,0,0H325.89a0,0,0,0,1,0,0V405.67A0,0,0,0,1,325.89,405.67Z" transform="translate(1134.41 714.17) rotate(135)"/><path class="cls-6" d="M380.81,62.86H514.87a50.49,50.49,0,0,1,50.49,50.49V441a0,0,0,0,1,0,0H380.81a0,0,0,0,1,0,0V62.86a0,0,0,0,1,0,0Z" transform="translate(629.46 759.17) rotate(-135)"/></g><g id="Layer_3" data-name="Layer 3"><text class="cls-7" transform="translate(0 1134.77)"><tspan class="cls-8">F</tspan><tspan class="cls-9" x="123.46" y="0">A</tspan><tspan x="307.88" y="0">AN</tspan><tspan class="cls-10" x="678.79" y="0">C</tspan><tspan x="831.69" y="0">AD</tspan></text></g></svg>