<svg id="Layer_1" data-name="Layer 1" xmlns="http://www.w3.org/2000/svg" xmlns:xlink="http://www.w3.org/1999/xlink" viewBox="0 0 983.67 1200"><defs><style>.cls-1{fill:#29abe2;}.cls-2{fill:#fff;}.cls-3{fill:url(#linear-gradient);}.cls-4{fill:url(#linear-gradient-2);}.cls-5{fill:url(#linear-gradient-3);}.cls-6{fill:url(#linear-gradient-4);}</style><linearGradient id="linear-gradient" x1="751.79" y1="224.18" x2="952.19" y2="431.69" gradientUnits="userSpaceOnUse"><stop offset="0" stop-color="#055283"/><stop offset="1" stop-color="#29abe2"/></linearGradient><linearGradient id="linear-gradient-2" x1="834.63" y1="782.33" x2="570.46" y2="1046.5" xlink:href="#linear-gradient"/><linearGradient id="linear-gradient-3" x1="764.16" y1="738.47" x2="1196.69" y2="1186.37" gradientTransform="matrix(0.9, 0.58, -0.9, 0.58, 378.32, -334.56)" xlink:href="#linear-gradient"/><linearGradient id="linear-gradient-4" x1="1010.98" y1="1163.32" x2="1443.51" y2="1611.22" gradientTransform="matrix(0.9, 0.58, -0.9, 0.58, 612.8, -1186.48)" xlink:href="#linear-gradient"/></defs><path class="cls-1" d="M1030.69,870.23l31.44,31.44a56.17,56.17,0,0,1-13,89.11L662.54,1200,166.73,931.69a111.73,111.73,0,0,1-58.56-98.28V366.59a111.73,111.73,0,0,1,58.56-98.28L662.54,0l399.85,216.38a56.15,56.15,0,0,1,13,89.11l-35,35L864.58,516.27v0l-202-202L376.76,600,662.54,885.78,854.39,693.93l.51.51Z" transform="translate(-108.17)"/><polygon class="cls-2" points="756.42 516.27 756.42 516.29 554.37 314.24 554.39 314.24 756.42 516.27"/><path class="cls-3" d="M1040.35,340.5,864.58,516.27v0l-202-202h0L774.87,201.91a89.72,89.72,0,0,1,126.89,0Z" transform="translate(-108.17)"/><polygon class="cls-4" points="922.52 870.23 658.35 1134.38 482.57 958.61 746.74 694.44 922.52 870.23"/><path class="cls-5" d="M270.26,539.08h198.1a50.49,50.49,0,0,1,50.49,50.49v458.88a0,0,0,0,1,0,0H270.26a0,0,0,0,1,0,0V539.08A0,0,0,0,1,270.26,539.08Z" transform="translate(1126.66 1076.05) rotate(135)"/><path class="cls-6" d="M344.23,77.33h198.1a50.49,50.49,0,0,1,50.49,50.49V586.71a0,0,0,0,1,0,0H344.23a0,0,0,0,1,0,0V77.33A0,0,0,0,1,344.23,77.33Z" transform="translate(456.89 898.09) rotate(-135)"/></svg>